# xmcd
# 
# Track frame offsets:
#     150
#     11570
#     23787
#     33832
#     45967
#     58572
#     77205
#     93280
#     104320
#     124165
# 
# Disc length: 1831
# 
# Revision: 2
# Processed by: cddbd v1.5.2PL0 Copyright (c) Steve Scherf et al.
# Submitted via: fre:ac v1.0.27
# 
DISCID=6d07250a
DTITLE=Memphis Slim - Dialog in Boogie
DYEAR=0
DGENRE=Jazz
TTITLE0=Rockin'
TTITLE1=E. E. C. Boogie
TTITLE2=C'est normal c'est normand
TTITLE3=Jefferson County
TTITLE4=Fourth and Beale
TTITLE5=This is the way i feel
TTITLE6=Three, two, one Boogie
TTITLE7=Mid nite tempo
TTITLE8=Cooky Boogie
TTITLE9=C and L Boogie
EXTD=
EXTT0=
EXTT1=
EXTT2=
EXTT3=
EXTT4=
EXTT5=
EXTT6=
EXTT7=
EXTT8=
EXTT9=
PLAYORDER=
